# xmcd CD database file
#
# Track frame offsets:
#	150
#	15113
#	28663
#	47997
#	62268
#	76296
#	96750
#	117894
#
# Disc length: 1754 seconds
#
# Revision: 0
# Processed by: cddbd v1.5.1PL0 Copyright (c) Steve Scherf et al.
# Submitted via: CDex 1.51
#
DISCID=5206d808
DTITLE=Fran Asher - Stop Drop and Swing
DYEAR=2000
DGENRE=Jazz
TTITLE0=Swingtime in Honolulu
TTITLE1=Walkin' After Midnight
TTITLE2=Trust in Me
TTITLE3=I've Gotten Over You
TTITLE4=Stop, Drop and Swing
TTITLE5=Bottom of the Blues
TTITLE6=Don't Take Your Love From Me
TTITLE7=Hallelujah I just Love Him So
EXTD=YEAR: 2000
EXTT0=
EXTT1=
EXTT2=
EXTT3=
EXTT4=
EXTT5=
EXTT6=
EXTT7=
PLAYORDER=
